<svg xmlns="http://www.w3.org/2000/svg" viewBox="0 0 480 408" width="480" height="408">
  <defs>
    <clipPath id="recorte"><rect x="0" y="0" width="480" height="408"/></clipPath>
  </defs>
  <g clip-path="url(#recorte)">

  <!-- Respiración del conjunto -->
  <g transform="translate(240 400)">
   <g>
    <animateTransform attributeName="transform" type="scale"
      values="1 1;1.013 1.013;1 1" dur="4.4s" calcMode="spline"
      keyTimes="0;0.5;1" keySplines="0.4 0 0.2 1;0.4 0 0.2 1" repeatCount="indefinite"/>
    <g transform="translate(-240 -400)">

      <circle cx="240" cy="252" r="196" fill="#E4F7EE"/>
      <g fill="#01B763">
        <circle cx="60" cy="96" r="6">
          <animateTransform attributeName="transform" type="translate" values="0 0;0 -8;0 0" dur="3.1s" repeatCount="indefinite"/>
        </circle>
        <circle cx="424" cy="76" r="7.5">
          <animateTransform attributeName="transform" type="translate" values="0 0;0 9;0 0" dur="3.7s" repeatCount="indefinite"/>
        </circle>
        <circle cx="452" cy="140" r="4.5">
          <animateTransform attributeName="transform" type="translate" values="0 0;0 -6;0 0" dur="2.7s" repeatCount="indefinite"/>
        </circle>
      </g>

      <!-- Cola naranja -->
      <g>
        <animateTransform attributeName="transform" type="rotate"
          values="-8 92 330;8 92 330;-8 92 330" dur="3.3s" calcMode="spline"
          keyTimes="0;0.5;1" keySplines="0.45 0 0.55 1;0.45 0 0.55 1" repeatCount="indefinite"/>
        <path d="M92 330 C 34 336, 22 386, 62 402" fill="none" stroke="#E8873A" stroke-width="26" stroke-linecap="round"/>
      </g>

      <!-- Cola negra -->
      <g>
        <animateTransform attributeName="transform" type="rotate"
          values="7 424 322;-7 424 322;7 424 322" dur="2.9s" calcMode="spline"
          keyTimes="0;0.5;1" keySplines="0.45 0 0.55 1;0.45 0 0.55 1" repeatCount="indefinite"/>
        <path d="M424 322 C 474 330, 480 384, 440 402" fill="none" stroke="#1A1E1C" stroke-width="24" stroke-linecap="round"/>
      </g>

      <!-- ══ GATO NARANJA ══ -->
      <g transform="rotate(6 160 400)">
       <g>
        <animateTransform attributeName="transform" type="rotate"
          values="0 160 400;1.5 160 400;0 160 400" dur="5.4s" calcMode="spline"
          keyTimes="0;0.5;1" keySplines="0.4 0 0.2 1;0.4 0 0.2 1" repeatCount="indefinite"/>

        <rect x="72" y="188" width="176" height="216" rx="74" fill="#E8873A"/>
        <path d="M96 232 h44 a9 9 0 0 1 0 18 h-44 a9 9 0 0 1 0-18z" fill="#C96A22"/>
        <path d="M92 266 h38 a9 9 0 0 1 0 18 h-38 a9 9 0 0 1 0-18z" fill="#C96A22"/>
        <ellipse cx="178" cy="306" rx="50" ry="66" fill="#FFFFFF"/>

        <!-- Cabeza -->
        <g transform="rotate(7 173 158)">
         <g>
          <animateTransform attributeName="transform" type="rotate"
            values="0 173 158;2 173 158;0 173 158" dur="6.6s" calcMode="spline"
            keyTimes="0;0.5;1" keySplines="0.4 0 0.2 1;0.4 0 0.2 1" repeatCount="indefinite"/>

          <!-- Oreja izquierda, con tic -->
          <g>
            <animateTransform attributeName="transform" type="rotate"
              values="0 122 108;0 122 108;-9 122 108;5 122 108;0 122 108;0 122 108"
              keyTimes="0;0.62;0.66;0.70;0.74;1" dur="7.3s" repeatCount="indefinite"/>
            <path d="M100 118 L118 52 L164 100 Z" fill="#E8873A"/>
            <path d="M113 108 L123 74 L146 100 Z" fill="#F2A9A0"/>
          </g>
          <path d="M184 96 L232 52 L246 122 Z" fill="#E8873A"/>
          <path d="M196 100 L224 76 L232 110 Z" fill="#F2A9A0"/>

          <rect x="98" y="90" width="152" height="136" rx="60" fill="#E8873A"/>
          <path d="M148 106 h14 a7 7 0 0 1 0 14 h-14 a7 7 0 0 1 0-14z" fill="#C96A22"/>
          <path d="M172 100 h14 a7 7 0 0 1 0 14 h-14 a7 7 0 0 1 0-14z" fill="#C96A22"/>
          <path d="M196 108 h14 a7 7 0 0 1 0 14 h-14 a7 7 0 0 1 0-14z" fill="#C96A22"/>

          <ellipse cx="176" cy="196" rx="47" ry="40" fill="#FFFFFF"/>

          <!-- Bigotes -->
          <g stroke="#FFFFFF" stroke-width="2.4" stroke-linecap="round" opacity="0.95">
            <animateTransform attributeName="transform" type="rotate"
              values="-1.5 174 192;1.5 174 192;-1.5 174 192" dur="4.1s" repeatCount="indefinite"/>
            <path d="M136 186 L84 172"/><path d="M136 194 L80 194"/><path d="M138 202 L86 214"/>
            <path d="M212 186 L264 172"/><path d="M212 194 L268 194"/><path d="M210 202 L262 214"/>
          </g>

          <!-- Ojos verdosos -->
          <g transform="translate(146 158)">
            <g>
              <animateTransform attributeName="transform" type="scale"
                values="1 1;1 1;1 0.05;1 1;1 1" keyTimes="0;0.9;0.928;0.958;1" dur="4.9s" repeatCount="indefinite"/>
              <ellipse rx="17" ry="16" fill="#C9D46E"/>
              <ellipse rx="4.5" ry="13" fill="#1A1E1C">
                <animate attributeName="rx" values="4.5;7;4.5" dur="8.1s" repeatCount="indefinite"/>
                <animate attributeName="cx" values="0;2.6;0;-2.2;0" dur="11.2s"
                  calcMode="spline" keyTimes="0;0.25;0.5;0.75;1"
                  keySplines="0.4 0 0.2 1;0.4 0 0.2 1;0.4 0 0.2 1;0.4 0 0.2 1"
                  repeatCount="indefinite"/>
              </ellipse>
              <circle cx="-5" cy="-6" r="3.4" fill="#FFFFFF"/>
            </g>
          </g>
          <g transform="translate(202 156)">
            <g>
              <animateTransform attributeName="transform" type="scale"
                values="1 1;1 1;1 0.05;1 1;1 1" keyTimes="0;0.9;0.928;0.958;1" dur="4.9s" repeatCount="indefinite"/>
              <ellipse rx="17" ry="16" fill="#C9D46E"/>
              <ellipse rx="4.5" ry="13" fill="#1A1E1C">
                <animate attributeName="rx" values="4.5;7;4.5" dur="8.1s" repeatCount="indefinite"/>
                <animate attributeName="cx" values="0;2.6;0;-2.2;0" dur="11.2s"
                  calcMode="spline" keyTimes="0;0.25;0.5;0.75;1"
                  keySplines="0.4 0 0.2 1;0.4 0 0.2 1;0.4 0 0.2 1;0.4 0 0.2 1"
                  repeatCount="indefinite"/>
              </ellipse>
              <circle cx="-5" cy="-6" r="3.4" fill="#FFFFFF"/>
            </g>
          </g>

          <path d="M166 182 L184 182 L175 193 Z" fill="#E9797E"/>
          <path d="M175 193 L175 200" stroke="#D9928A" stroke-width="2.6" stroke-linecap="round"/>
         </g>
        </g>
       </g>
      </g>

      <!-- ══ GATO NEGRO ══ -->
      <g transform="rotate(-6 358 400)">
       <g>
        <animateTransform attributeName="transform" type="rotate"
          values="0 358 400;-1.7 358 400;0 358 400" dur="6.1s" calcMode="spline"
          keyTimes="0;0.5;1" keySplines="0.4 0 0.2 1;0.4 0 0.2 1" repeatCount="indefinite"/>

        <rect x="276" y="258" width="172" height="146" rx="70" fill="#1A1E1C"/>
        <ellipse cx="358" cy="326" rx="21" ry="25" fill="#FFFFFF" opacity="0.92"/>

        <g transform="rotate(-8 354 252)">
         <g>
          <animateTransform attributeName="transform" type="rotate"
            values="0 354 252;-2.2 354 252;0 354 252" dur="7.2s" calcMode="spline"
            keyTimes="0;0.5;1" keySplines="0.4 0 0.2 1;0.4 0 0.2 1" repeatCount="indefinite"/>

          <path d="M282 216 L292 146 L344 198 Z" fill="#1A1E1C"/>
          <path d="M295 204 L303 166 L327 194 Z" fill="#3A423C"/>
          <!-- Oreja derecha, con tic -->
          <g>
            <animateTransform attributeName="transform" type="rotate"
              values="0 414 198;0 414 198;10 414 198;-5 414 198;0 414 198;0 414 198"
              keyTimes="0;0.3;0.34;0.38;0.42;1" dur="8.7s" repeatCount="indefinite"/>
            <path d="M366 194 L420 144 L430 220 Z" fill="#1A1E1C"/>
            <path d="M380 198 L410 170 L417 208 Z" fill="#3A423C"/>
          </g>

          <rect x="280" y="188" width="150" height="132" rx="58" fill="#1A1E1C"/>

          <g stroke="#8A968F" stroke-width="2.2" stroke-linecap="round" opacity="0.8">
            <animateTransform attributeName="transform" type="rotate"
              values="1.4 354 280;-1.4 354 280;1.4 354 280" dur="4.7s" repeatCount="indefinite"/>
            <path d="M318 276 L270 262"/><path d="M318 284 L266 284"/><path d="M320 292 L272 304"/>
            <path d="M390 276 L438 262"/><path d="M390 284 L442 284"/><path d="M388 292 L436 304"/>
          </g>

          <!-- Ojos ámbar -->
          <g transform="translate(326 252)">
            <g>
              <animateTransform attributeName="transform" type="scale"
                values="1 1;1 1;1 0.05;1 1;1 1" keyTimes="0;0.92;0.945;0.972;1" dur="6.3s" repeatCount="indefinite"/>
              <ellipse rx="18" ry="17" fill="#E8B923"/>
              <ellipse rx="5" ry="14" fill="#12140F">
                <animate attributeName="rx" values="5;8;5" dur="9.4s" repeatCount="indefinite"/>
                <animate attributeName="cx" values="0;-2.4;0;2.8;0" dur="12.6s"
                  calcMode="spline" keyTimes="0;0.25;0.5;0.75;1"
                  keySplines="0.4 0 0.2 1;0.4 0 0.2 1;0.4 0 0.2 1;0.4 0 0.2 1"
                  repeatCount="indefinite"/>
              </ellipse>
              <circle cx="-5" cy="-7" r="3.6" fill="#FFFFFF"/>
            </g>
          </g>
          <g transform="translate(384 256)">
            <g>
              <animateTransform attributeName="transform" type="scale"
                values="1 1;1 1;1 0.05;1 1;1 1" keyTimes="0;0.92;0.945;0.972;1" dur="6.3s" repeatCount="indefinite"/>
              <ellipse rx="18" ry="17" fill="#E8B923"/>
              <ellipse rx="5" ry="14" fill="#12140F">
                <animate attributeName="rx" values="5;8;5" dur="9.4s" repeatCount="indefinite"/>
                <animate attributeName="cx" values="0;-2.4;0;2.8;0" dur="12.6s"
                  calcMode="spline" keyTimes="0;0.25;0.5;0.75;1"
                  keySplines="0.4 0 0.2 1;0.4 0 0.2 1;0.4 0 0.2 1;0.4 0 0.2 1"
                  repeatCount="indefinite"/>
              </ellipse>
              <circle cx="-5" cy="-7" r="3.6" fill="#FFFFFF"/>
            </g>
          </g>

          <path d="M346 280 L364 280 L355 291 Z" fill="#6E5A52"/>
         </g>
        </g>
       </g>
      </g>

      <!-- Pata naranja apoyada sobre el negro -->
      <g transform="rotate(10 310 350)">
       <g>
        <animateTransform attributeName="transform" type="rotate"
          values="0 310 350;1.6 310 350;0 310 350" dur="5.4s" calcMode="spline"
          keyTimes="0;0.5;1" keySplines="0.4 0 0.2 1;0.4 0 0.2 1" repeatCount="indefinite"/>
        <rect x="212" y="330" width="196" height="40" rx="20" fill="#E8873A"/>
        <g transform="translate(402 350)">
          <g>
            <animateTransform attributeName="transform" type="scale"
              values="1 1;1 1;1.09 0.92;0.97 1.04;1 1;1 1"
              keyTimes="0;0.5;0.55;0.62;0.68;1" dur="6.8s"
              calcMode="spline"
              keySplines="0 0 1 1;0.3 0 0.2 1;0.3 0 0.2 1;0.3 0 0.2 1;0 0 1 1"
              repeatCount="indefinite"/>
            <ellipse rx="28" ry="23" fill="#FFFFFF"/>
          </g>
        </g>
        <g fill="#E8C4A2">
          <ellipse cx="412" cy="342" rx="5" ry="4"/><ellipse cx="412" cy="354" rx="5" ry="4"/>
          <ellipse cx="404" cy="334" rx="4.4" ry="3.6"/>
        </g>
       </g>
      </g>

     </g>
    </g>
   </g>
  </g>
</svg>
